<svg version="1.2" xmlns="http://www.w3.org/2000/svg" viewBox="0 0 1144 550" width="1144" height="550">
	<title>logo-svg</title>
	<defs>
		<clipPath clipPathUnits="userSpaceOnUse" id="cp1">
			<path d="m-371-474h1920v1536h-1920z"/>
		</clipPath>
		<linearGradient id="g1" x2="1" gradientUnits="userSpaceOnUse" gradientTransform="matrix(40.174,-343.709,318.245,37.198,355.059,415.989)">
			<stop offset="0" stop-color="#ffa015"/>
			<stop offset="1" stop-color="#ffc217"/>
		</linearGradient>
		<linearGradient id="g2" x2="1" gradientUnits="userSpaceOnUse" gradientTransform="matrix(40.174,-343.709,320.43,37.453,500.428,432.98)">
			<stop offset="0" stop-color="#ffa015"/>
			<stop offset="1" stop-color="#ffc217"/>
		</linearGradient>
		<linearGradient id="g3" x2="1" gradientUnits="userSpaceOnUse" gradientTransform="matrix(40.174,-343.709,319.809,37.381,446.432,426.669)">
			<stop offset="0" stop-color="#ffa015"/>
			<stop offset="1" stop-color="#ffc217"/>
		</linearGradient>
	</defs>
	<style>
		.s0 { fill: #ffa015 } 
		.s1 { fill: #000000 } 
		.s2 { fill: url(#g1) } 
		.s3 { fill: url(#g2) } 
		.s4 { fill: url(#g3) } 
	</style>
	<g id="Clip-Path: Clip-Path: Page 1" clip-path="url(#cp1)">
		<g id="Clip-Path: Page 1">
			<g id="Page 1">
				<path id="Path 1" fill-rule="evenodd" class="s0" d="m259.9 416.1c-2.2 12.8-9.7 21.4-20.3 24.7 9.5 3.2 13.8 11.8 11.9 23.3l-4.6 25.4h-38.1l6.1-33.9h-7.1l-6 33.9h-38.2l17.6-98.8h57.9c15.5 0 23.5 9.8 20.8 25.4zm-37.5-2.9h-7.1l-3.2 18.4h7zm87.3-23.3h32.5c15.5 0 23.6 9.9 20.9 25.4l-13.1 74.2h-38.2l4-21.9h-7.1l-3.9 21.9h-38.2l13.2-74.2c2.7-15.5 14.4-25.4 29.9-25.4zm15.1 26.1h-7l-4.4 24.7h7zm102.6 74.2h-32.5c-15.6 0-23.6-9.9-20.9-25.5l8.7-49.4c2.7-15.5 14.5-25.4 30-25.4h32.5c15.5 0 23.5 9.9 20.9 25.4l-3.8 21.2h-38.2l3.7-20.5h-7.1l-8.4 48h7l3.7-20.4h38.1l-3.8 21.1c-2.7 15.6-14.4 25.5-29.9 25.5zm119.7-70.7l-12.4 70h-38.2l12.5-70h-24l5.1-28.9h86.1l-5.1 28.9zm69.3 70h-38.1l17.5-98.9h38.2zm62.7-99.5h32.4c15.6 0 23.6 9.8 20.9 25.4l-8.7 49.4c-2.7 15.5-14.4 25.4-29.9 25.4h-32.5c-15.6 0-23.6-9.9-20.9-25.4l8.7-49.4c2.7-15.6 14.4-25.4 30-25.4zm15.1 26.1h-7.1l-8.5 48h7.1zm101.9-13.7l3.4 24.3h7.1l-5-36h38.2l-17.5 98.8h-25.9c-8.1 0-12.8-3.8-13.8-11.7l-3.4-24.3h-7.1l5 36h-38.1l17.5-98.8h25.8c8.2 0 12.9 3.8 13.8 11.7zm88.9-12.4h32.4c15.6 0 23.6 9.9 20.9 25.4l-13.1 74.1h-38.1l3.9-21.9h-7l-4 21.9h-38.1l13.1-74.1c2.7-15.5 14.4-25.4 30-25.4zm15.1 26.1h-7.1l-4.4 24.7h7.1zm119.3 3.5l-12.4 69.9h-38.1l12.4-69.9h-24l5.1-28.9h86.1l-5.1 28.9zm122.2-28.9l-5.1 28.9h-35.3l-1.3 7.1h33.9l-4.8 26.8h-33.9l-1.3 7.1h35.3l-5 28.9h-73.5l17.5-98.8z"/>
				<path id="Path 2" fill-rule="evenodd" class="s1" d="m250.8 507.5l6.3 13.1 9.4-13.1h8l-14.5 20.1-1.5 12.7h-7.9l1.6-13-9.4-19.8zm32.1 31.3c-4.6-2.6-7.4-7.4-7.4-12.9q0-1 0.2-2c0.3-3.1 1.4-5.9 3.3-8.5 3.6-5.2 9.5-8.5 15.8-8.5 2.9 0 5.5 0.7 7.8 2 4.6 2.6 7.3 7.5 7.3 12.9q0 1.1-0.1 2.1-0.6 4.5-3.3 8.4c-3.7 5.2-9.6 8.5-15.9 8.5q-4.3 0-7.7-2zm8.7-5.8c5.8 0 10.2-5.1 10.2-10.3 0-4.5-3.4-7.9-7.9-7.9-5.8 0-10.3 5.1-10.3 10.3 0 4.5 3.4 7.9 8 7.9zm28.9-6c0 3.6 2.5 6.1 6.1 6.1 3.9 0 7.1-3 7.7-7.1l2.2-18.5h7.8l-2.2 18.5c-0.4 2.7-1.3 5.2-2.9 7.4-3.2 4.5-8.3 7.4-13.6 7.4-7.5 0-13-5.5-13-12.9 0-0.9 0-1.5 0.1-1.9l2.2-18.5h7.9l-2.3 18.5c0 0.2 0 0.5 0 1zm40.9 13.3l-5.5-11h-3.2l-1.4 11h-7.8l4-32.8h16.2c5.4 0.2 9.3 4.2 9.3 9.5 0 0.3-0.1 0.8-0.1 1.3-0.6 4.7-3.8 8.5-8 10.2l6 11.8zm3.6-21.9q0.1-0.2 0.1-0.6c0-2.1-1.4-3.5-3.6-3.5h-7l-0.9 8.1h6.9c2.4 0 4.2-1.6 4.5-4zm17.2 21.9l4-32.8h7.8l-1.5 12.7 12.8-12.7h10.8l-14.9 14.7 11.5 18.1h-10.1l-7.6-11.9-4 4-1 7.9zm37.8-32.8h23.5l-0.8 6.8h-15.7l-0.7 6.1h12.7l-0.9 6.9h-12.7l-0.8 6.1h15.7l-0.8 6.9h-23.5zm34.8 0l6.2 13.1 9.4-13.1h8.1l-14.6 20.2-1.5 12.6h-7.8l1.5-13-9.4-19.8zm39.8 32.8l3.1-26h-8.8l0.9-6.9h25.4l-0.8 6.9h-8.8l-3.2 26zm29.1-1.5c-4.6-2.6-7.4-7.4-7.4-12.8q0-1.1 0.2-2.1c0.3-3 1.4-5.9 3.2-8.5 3.7-5.2 9.6-8.5 15.9-8.5 2.8 0 5.4 0.7 7.7 2 4.7 2.7 7.4 7.5 7.4 12.9 0 0.7 0 1.4-0.2 2.1-0.3 3-1.4 5.8-3.2 8.4-3.7 5.2-9.6 8.6-15.9 8.6q-4.3 0-7.7-2.1zm8.7-5.8c5.8 0 10.2-5.1 10.2-10.3 0-4.5-3.4-7.9-8-7.9-5.7 0-10.2 5.1-10.2 10.3 0 4.5 3.4 7.9 8 7.9zm47.1-10.1h16.6l-1.8 17.4h-8.2l0.2-2.1c-2.8 1.7-6.1 2.7-9.5 2.7-2.9 0-5.4-0.7-7.7-2.1-4.6-2.6-7.4-7.4-7.4-12.8q0-1.1 0.1-2.1c0.4-3 1.5-5.9 3.3-8.5 3.7-5.2 9.6-8.5 15.8-8.5 6.1 0 11.1 3.2 13.6 8.2l-7.4 4c-1.4-2.6-4-4.3-7.1-4.3-5.8 0-10.2 5.1-10.2 10.3 0 4.5 3.3 7.9 8 7.9 2.7 0 5.3-1.3 7.2-3.2h-5.5zm21.6-15.4h23.5l-0.8 6.8h-15.7l-0.7 6.1h12.7l-0.8 6.9h-12.8l-0.7 6.1h15.6l-0.8 6.9h-23.5zm22.7 32.8l4-32.8h9.5l9.5 20.4 2.5-20.4h7.9l-4 32.8h-9.7l-9.4-20.3-2.5 20.3zm36.6-32.8h23.5l-0.8 6.8h-15.7l-0.7 6.1h12.7l-0.9 6.9h-12.7l-0.8 6.1h15.7l-0.8 6.9h-23.5zm40.5 32.8l-5.5-11h-3.2l-1.3 11h-7.9l4.1-32.8h16.1c5.4 0.2 9.3 4.2 9.3 9.5q0 0.5-0.1 1.4c-0.6 4.6-3.7 8.4-7.9 10.1l5.9 11.8zm3.7-21.9q0-0.1 0-0.6c0-2.1-1.4-3.4-3.6-3.4h-6.9l-1 8h7c2.4 0 4.1-1.6 4.5-4zm9 21.9l16.8-32.8h8.6l8.7 32.8h-8.7l-1.6-6.4h-11.9l-3.3 6.4zm22-13.2l-2.2-8.4-4.3 8.4zm16.8 13.2l3.2-26h-8.9l0.9-6.9h25.5l-0.9 6.9h-8.8l-3.2 26zm19.9 0l4-32.8h7.8l-4 32.8zm20.3-1.5c-4.6-2.6-7.4-7.4-7.4-12.8 0-0.7 0-1.4 0.1-2.1 0.4-3 1.5-5.9 3.3-8.5 3.7-5.2 9.6-8.5 15.8-8.5 2.9 0 5.5 0.7 7.8 2 4.6 2.7 7.4 7.5 7.4 12.9q0 1.1-0.2 2.1-0.4 4.5-3.3 8.4c-3.6 5.2-9.5 8.6-15.8 8.6-2.9 0-5.4-0.7-7.7-2.1zm8.6-5.8c5.8 0 10.2-5.1 10.2-10.3 0-4.5-3.3-7.9-7.9-7.9-5.8 0-10.2 5.1-10.2 10.3 0 4.5 3.4 7.9 7.9 7.9zm19.4 7.3l4-32.8h9.6l9.5 20.4 2.5-20.4h7.8l-4 32.8h-9.6l-9.5-20.3-2.5 20.3zm32.6 0l16.8-32.8h8.6l8.7 32.8h-8.7l-1.6-6.4h-11.9l-3.3 6.4zm22-13.2l-2.2-8.4-4.3 8.4zm19.3-19.6h7.8l-3.1 26h14.7l-0.9 6.8h-22.5zm40.1 32.8l-6.3-32.8h8.2l3.8 19.2 7.8-19.2h8.5l3.1 19.2 8.5-19.2h8.2l-14.4 32.8h-8.2l-3.1-19.1-7.8 19.1zm44.9-32.8h23.5l-0.8 6.9h-15.7l-0.8 6.1h12.8l-0.9 6.9h-12.7l-0.8 6.1h15.7l-0.8 6.8h-23.6zm22.7 32.9l16.8-32.9h8.6l8.7 32.9h-8.7l-1.6-6.4h-11.9l-3.3 6.4zm22-13.3l-2.2-8.4-4.3 8.4zm19.3-19.6h7.9l-3.2 26h14.7l-0.9 6.9h-22.5zm24.2 32.8l3.1-26h-8.8l0.8-6.9h25.5l-0.8 6.9h-8.8l-3.2 26zm19.8 0l4.1-32.8h7.8l-1.6 12.9h13.7l1.6-12.9h7.8l-4 32.8h-7.8l1.6-13h-13.8l-1.5 13z"/>
				<path id="Path 3" class="s0" d="m317.6 6.8c-8.1 0-15.7 6.6-17 14.7l-9.6 62.6c-1.3 8.1-8.9 14.7-17 14.7h-198.5c-8.1 0-15.7 6.6-16.9 14.7l-56.9 369.5c-1.2 8.1 4.3 14.7 12.4 14.7h111c8.1 0 15.7-6.6 17-14.7l15.2-99c1.3-8.1 8.9-14.7 17-14.7h54.8c8.1 0 15.7-6.6 17-14.7l9.6-63c1.3-8.2-4.3-14.8-12.4-14.8h-54.8c-8.1 0-13.7-6.5-12.4-14.7l3.6-23.8c1.3-8.1 8.9-14.7 17-14.7h103.6c8.1 0 15.7-6.6 17-14.7l7.7-49.9c1.2-8.1 8.8-14.7 16.9-14.7h62.6c8.1 0 15.7-6.6 17-14.7l16.6-108.1c1.3-8.1-4.3-14.7-12.4-14.7z"/>
				<path id="Path 4" class="s2" d="m345.5 229.5c-4.5 0-8.7 3.6-9.4 8.1l-10.1 65.8c-0.7 4.5 2.4 8.1 6.8 8.1h65.9c4.4 0 8.6-3.6 9.3-8.1l10.2-65.8c0.7-4.5-2.4-8.1-6.9-8.1z"/>
				<path id="Path 6" class="s3" d="m515.8 236.5c-2.4 0-4.7 2-5.1 4.5l-2.4 16c-0.4 2.5 1.2 4.4 3.7 4.4h16c2.5 0 4.8-1.9 5.1-4.4l2.5-16c0.4-2.5-1.3-4.5-3.7-4.5z"/>
				<path id="Path 5" class="s4" d="m463.3 165.8c-3.1 0-6.1 2.6-6.6 5.8l-4.4 28.6c-0.5 3.2 1.7 5.8 4.9 5.8h28.6c3.2 0 6.2-2.6 6.7-5.8l4.4-28.6c0.4-3.2-1.7-5.8-4.9-5.8z"/>
			</g>
		</g>
	</g>
</svg>